Coordinates
version=1
nRows=8
nColumns=40
inDegrees=yes

Units are S.I. units (second, meters, Newtons, ...)
Angles are in degrees.

endheader
time	pelvis_tilt	pelvis_list	pelvis_rotation	pelvis_tx	pelvis_ty	pelvis_tz	hip_flexion_r	hip_adduction_r	hip_rotation_r	knee_angle_r	knee_angle_r_beta	ankle_angle_r	subtalar_angle_r	mtp_angle_r	hip_flexion_l	hip_adduction_l	hip_rotation_l	knee_angle_l	knee_angle_l_beta	ankle_angle_l	subtalar_angle_l	mtp_angle_l	lumbar_extension	lumbar_bending	lumbar_rotation	arm_flex_r	arm_add_r	arm_rot_r	elbow_flex_r	pro_sup_r	wrist_flex_r	wrist_dev_r	arm_flex_l	arm_add_l	arm_rot_l	elbow_flex_l	pro_sup_l	wrist_flex_l	wrist_dev_l
      5.25000000	      5.73992010	     21.60260234	     82.20299989	      0.58968682	      1.01670269	     -0.98151147	    -29.72966646	      2.44372199	      4.23958087	      1.94082014	      0.03387370	     12.46304187	      0.00000000	      0.00000000	     -0.49228115	     -9.81962841	    -16.18894522	     19.41804782	      0.33890887	      8.22138187	      0.00000000	      0.00000000	    -38.30005583	      1.74803702	     10.16679804	     11.49399997	    -20.18306801	      2.45082464	    141.25113707	     85.10478535	      0.00000000	      0.00000000	      3.37582587	     -6.37765337	     -1.67567488	    139.66140706	     82.27257443	      0.00000000	      0.00000000
      5.26000000	      6.01067041	     20.96008867	     82.49863319	      0.58814988	      1.01375435	     -0.97991335	    -29.75214250	      2.81411287	      3.91257296	      1.99081072	      0.03474620	     13.04400746	      0.00000000	      0.00000000	      0.10265970	     -9.89280358	    -15.02359983	     15.46906200	      0.26998606	      8.12218782	      0.00000000	      0.00000000	    -37.91632062	      2.16888665	     10.12446879	     11.66666214	    -20.30028632	      2.41424427	    141.22941298	     85.10863145	      0.00000000	      0.00000000	      3.46942309	     -6.14135584	     -1.63627136	    139.54668579	     82.29382277	      0.00000000	      0.00000000
      5.27000000	      6.24129515	     20.41339779	     82.73904216	      0.58654788	      1.01074694	     -0.97876182	    -29.77482661	      3.08461544	      3.38746931	      2.27274812	      0.03966694	     13.83081829	      0.00000000	      0.00000000	      0.39172735	     -9.87357902	    -13.47851971	     11.46425024	      0.20008891	      7.64444827	      0.00000000	      0.00000000	    -37.54855223	      2.51933236	     10.08088547	     11.77449060	    -20.40979046	      2.39224659	    141.18757009	     85.19463271	      0.00000000	      0.00000000	      3.49095036	     -5.89201551	     -1.62557340	    139.41697090	     82.34983754	      0.00000000	      0.00000000
      5.28000000	      6.56217142	     19.85805105	     83.05869372	      0.58490986	      1.00760744	     -0.97763263	    -29.79120654	      3.50442687	      3.03851153	      2.59683824	      0.04532338	     14.49651703	      0.00000000	      0.00000000	      0.71854390	    -10.00362037	    -11.43943844	      7.79854148	      0.13611023	      7.29683280	      0.00000000	      0.00000000	    -37.17703659	      2.99086294	      9.97222775	     11.85067645	    -20.43401793	      2.42743569	    141.15039624	     85.17976422	      0.00000000	      0.00000000	      3.51046727	     -5.63505590	     -1.65190454	    139.30895438	     82.35515528	      0.00000000	      0.00000000
      5.29000000	      6.94201028	     19.37624668	     83.14039522	      0.58366166	      1.00456980	     -0.97644741	    -29.79860529	      3.87383537	      3.10875948	      3.06402388	      0.05347731	     15.17945665	      0.00000000	      0.00000000	      0.95044610	    -10.28053879	     -9.60548332	      4.61917130	      0.08061975	      7.22862247	      0.00000000	      0.00000000	    -36.88431491	      3.36803076	     10.03387756	     11.97516568	    -20.41189919	      2.44481581	    141.06588556	     85.15445833	      0.00000000	      0.00000000	      3.53107767	     -5.36036556	     -1.73106550	    139.18826880	     82.33274621	      0.00000000	      0.00000000
      5.30000000	      7.01316697	     19.12454058	     83.22560580	      0.58226596	      1.00172741	     -0.97555547	    -29.80959409	      3.86642986	      2.70064811	      3.97406350	      0.06936049	     16.19936053	      0.00000000	      0.00000000	      1.03386597	    -10.25477131	     -8.34334935	      2.02983390	      0.03542728	      6.82981421	      0.00000000	      0.00000000	    -36.75034201	      3.39641657	      9.97987999	     12.07739971	    -20.27783586	      2.34355763	    141.01168645	     85.22471031	      0.00000000	      0.00000000	      3.56376075	     -5.13696915	     -1.76366420	    139.09498135	     82.27163030	      0.00000000	      0.00000000
      5.31000000	      7.24950080	     18.85454696	     83.50350482	      0.58036884	      0.99856543	     -0.97452466	    -29.81102083	      4.12254265	      2.46992148	      4.91775530	      0.08583102	     17.14047031	      0.00000000	      0.00000000	      1.70636281	    -10.49623852	     -7.03060678	      0.95163232	      0.01660912	      7.10325032	      0.00000000	      0.00000000	    -36.61925543	      3.71953306	      9.82086691	     12.14995766	    -20.20076278	      2.31598405	    141.02974420	     84.89498611	      0.00000000	      0.00000000	      3.65938002	     -4.87076842	     -1.77295905	    139.04019680	     81.82268967	      0.00000000	      0.00000000
      5.32000000	      7.22249205	     18.72277110	     83.55975446	      0.57831329	      0.99570540	     -0.97399119	    -29.81507315	      3.91978473	      2.15630828	      6.10074692	      0.10647812	     18.14920127	      0.00000000	      0.00000000	      2.28746497	    -10.42857184	     -6.44580258	      0.74096073	      0.01293220	      7.52440676	      0.00000000	      0.00000000	    -36.54501164	      3.67710234	      9.66575259	     12.23940820	    -20.04315278	      2.25719477	    140.99400795	     85.06596370	      0.00000000	      0.00000000	      3.64563324	     -4.59227637	     -1.87954345	    138.99613970	     81.81778953	      0.00000000	      0.00000000
